HIERARCHY
ROOT Hips
{
	OFFSET 0.00000 0.00000 0.00000
	CHANNELS 6 Xposition Yposition Zposition Zrotation Yrotation Xrotation 
	JOINT LHipJoint
	{
		OFFSET 0 0 0
		CHANNELS 3 Zrotation Yrotation Xrotation
		JOINT LeftUpLeg
		{
			OFFSET 1.59801 -1.77853 0.57028
			CHANNELS 3 Zrotation Yrotation Xrotation
			JOINT LeftLeg
			{
				OFFSET 2.39439 -6.57854 0.00000
				CHANNELS 3 Zrotation Yrotation Xrotation
				JOINT LeftFoot
				{
					OFFSET 2.69334 -7.39989 0.00000
					CHANNELS 3 Zrotation Yrotation Xrotation
					JOINT LeftToeBase
					{
						OFFSET 0.09553 -0.26245 1.73747
						CHANNELS 3 Zrotation Yrotation Xrotation
						End Site
						{
							OFFSET 0.00000 -0.00000 0.89391
						}
					}
				}
			}
		}
	}
	JOINT RHipJoint
	{
		OFFSET 0 0 0
		CHANNELS 3 Zrotation Yrotation Xrotation
		JOINT RightUpLeg
		{
			OFFSET -1.54704 -1.77852 0.57028
			CHANNELS 3 Zrotation Yrotation Xrotation
			JOINT RightLeg
			{
				OFFSET -2.40286 -6.60180 0.00000
				CHANNELS 3 Zrotation Yrotation Xrotation
				JOINT RightFoot
				{
					OFFSET -2.63873 -7.24984 0.00000
					CHANNELS 3 Zrotation Yrotation Xrotation
					JOINT RightToeBase
					{
						OFFSET -0.15631 -0.42945 1.84436
						CHANNELS 3 Zrotation Yrotation Xrotation
						End Site
						{
							OFFSET -0.00000 -0.00000 0.95734
						}
					}
				}
			}
		}
	}
	JOINT LowerBack
	{
		OFFSET 0 0 0
		CHANNELS 3 Zrotation Yrotation Xrotation
		JOINT Spine
		{
			OFFSET -0.00436 1.89866 -0.04018
			CHANNELS 3 Zrotation Yrotation Xrotation
			JOINT Spine1
			{
				OFFSET 0.02031 1.88273 0.09634
				CHANNELS 3 Zrotation Yrotation Xrotation
				JOINT Neck
				{
					OFFSET 0 0 0
					CHANNELS 3 Zrotation Yrotation Xrotation
					JOINT Neck1
					{
						OFFSET -0.13105 1.89371 0.23083
						CHANNELS 3 Zrotation Yrotation Xrotation
						JOINT Head
						{
							OFFSET 0.17062 1.83990 -0.54062
							CHANNELS 3 Zrotation Yrotation Xrotation
							End Site
							{
								OFFSET 0.04576 1.94782 -0.21839
							}
						}
					}
				}
				JOINT LeftShoulder
				{
					OFFSET 0 0 0
					CHANNELS 3 Zrotation Yrotation Xrotation
					JOINT LeftArm
					{
						OFFSET 3.12424 1.09204 0.22226
						CHANNELS 3 Zrotation Yrotation Xrotation
						JOINT LeftForeArm
						{
							OFFSET 5.29277 -0.00000 0.00000
							CHANNELS 3 Zrotation Yrotation Xrotation
							JOINT LeftHand
							{
								OFFSET 2.85226 -0.00000 0.00000
								CHANNELS 3 Zrotation Yrotation Xrotation
								JOINT LeftFingerBase
								{
									OFFSET 0 0 0
									CHANNELS 3 Zrotation Yrotation Xrotation
									JOINT LeftHandIndex1
									{
										OFFSET 0.60210 -0.00000 0.00000
										CHANNELS 3 Zrotation Yrotation Xrotation
										End Site
										{
											OFFSET 0.48543 -0.00000 0.00000
										}
									}
								}
								JOINT LThumb
								{
									OFFSET 0 0 0
									CHANNELS 3 Zrotation Yrotation Xrotation
									End Site
									{
										OFFSET 0.49284 -0.00000 0.49284
									}
								}
							}
						}
					}
				}
				JOINT RightShoulder
				{
					OFFSET 0 0 0
					CHANNELS 3 Zrotation Yrotation Xrotation
					JOINT RightArm
					{
						OFFSET -2.91709 1.01504 0.30199
						CHANNELS 3 Zrotation Yrotation Xrotation
						JOINT RightForeArm
						{
							OFFSET -5.13304 -0.00000 0.00000
							CHANNELS 3 Zrotation Yrotation Xrotation
							JOINT RightHand
							{
								OFFSET -2.74305 -0.00000 0.00000
								CHANNELS 3 Zrotation Yrotation Xrotation
								JOINT RightFingerBase
								{
									OFFSET 0 0 0
									CHANNELS 3 Zrotation Yrotation Xrotation
									JOINT RightHandIndex1
									{
										OFFSET -0.76798 -0.00000 0.00000
										CHANNELS 3 Zrotation Yrotation Xrotation
										End Site
										{
											OFFSET -0.61916 -0.00000 0.00000
										}
									}
								}
								JOINT RThumb
								{
									OFFSET 0 0 0
									CHANNELS 3 Zrotation Yrotation Xrotation
									End Site
									{
										OFFSET -0.62862 -0.00000 0.62862
									}
								}
							}
						}
					}
				}
			}
		}
	}
}
MOTION
Frames: 6
Frame Time: .0083333
-0.1362 16.9477 0.0464 -0.4427 20.5467 -3.1551 0.0000 0.0000 0.0000 -18.3781 -17.5304 -2.7125 2.8112 10.3830 30.2261 0.6957 -11.9476 -15.9568 0.5598 -4.7923 -13.3170 0.0000 0.0000 0.0000 21.3803 -2.9702 0.4194 -1.8980 -8.6503 24.7075 -1.1283 -11.4571 -27.2013 -1.0758 6.5932 -18.5156 -1.7073 0.8288 3.4232 1.6342 1.0676 2.8209 2.6074 0.4989 0.9145 -14.9978 -11.3571 -18.2933 13.7721 -15.2264 21.4192 4.9709 -6.5481 12.4194 -0.0000 -0.0000 0.0000 -79.2349 -18.2098 55.6968 158.5832 -32.3116 -113.7288 -0.0000 0.0000 -64.8370 -51.2172 25.1488 -27.8736 -7.1250 0.0000 -0.0000 -63.3907 43.6017 4.1583 -0.0000 -0.0000 0.0000 80.5505 9.2030 39.2982 -159.6911 31.0128 -114.3103 0.0000 -0.0000 -52.2180 46.0579 13.9323 14.0273 7.1250 -0.0000 -0.0000 40.5228 -6.6693 51.9846
-0.1319 16.9491 0.0439 -0.4794 20.3441 -3.2377 0.0000 0.0000 0.0000 -18.3813 -17.4250 -2.6293 2.8132 10.3863 30.2370 0.7182 -11.7784 -16.1064 0.5954 -4.9401 -13.7377 0.0000 0.0000 0.0000 21.3915 -2.9130 0.4819 -1.8987 -8.6518 24.7121 -1.1012 -11.4822 -27.0236 -1.0764 6.5949 -18.5207 -1.6911 0.8364 3.5362 1.6719 1.0769 2.9046 2.6361 0.5026 0.9366 -15.0439 -11.4403 -18.6624 13.9305 -15.2912 21.1500 5.0054 -6.5497 12.4189 0.0000 -0.0000 0.0000 -79.2967 -18.2645 55.7458 158.6042 -32.2874 -113.7400 -0.0000 0.0000 -64.8731 -51.3737 25.0489 -27.9180 -7.1250 0.0000 -0.0000 -63.2762 43.4808 4.5146 0.0000 -0.0000 0.0000 80.4443 9.3585 39.2823 -159.7013 31.0006 -114.3156 0.0000 -0.0000 -52.2241 45.9785 14.0111 14.0645 7.1250 -0.0000 -0.0000 40.4948 -6.6684 51.9029
-0.1287 16.9483 0.0435 -0.5186 20.2380 -3.3156 0.0000 0.0000 0.0000 -18.3753 -17.3917 -2.5428 2.8189 10.3959 30.2685 0.7291 -11.7560 -16.1968 0.5844 -4.8947 -13.6085 0.0000 0.0000 0.0000 21.4262 -2.8673 0.5823 -1.8939 -8.6414 24.6800 -1.0877 -11.5407 -26.9749 -1.0142 6.4074 -17.9712 -1.7135 0.7925 3.6144 1.7099 1.0170 2.9859 2.6893 0.4708 0.9792 -15.0413 -11.4812 -18.9941 14.0403 -15.3031 20.9079 5.0269 -6.5309 12.4029 0.0000 -0.0000 0.0000 -79.3347 -18.3612 55.6940 158.6028 -32.2890 -113.7393 -0.0000 0.0000 -64.8780 -51.6312 24.9992 -28.0930 -7.1250 0.0000 -0.0000 -63.2340 43.3783 4.8289 0.0000 -0.0000 0.0000 80.3519 9.6087 39.3486 -159.7305 30.9656 -114.3307 0.0000 -0.0000 -52.3197 45.8315 13.9176 13.9073 7.1250 -0.0000 -0.0000 40.4812 -6.8747 51.6238
-0.1274 16.9483 0.0450 -0.5756 20.2383 -3.3741 0.0000 0.0000 0.0000 -18.3238 -17.4058 -2.4914 2.8266 10.4089 30.3111 0.7130 -11.9261 -16.1042 0.4870 -4.4748 -12.4164 0.0000 0.0000 0.0000 21.5012 -2.8532 0.6610 -1.8903 -8.6338 24.6564 -1.0970 -11.5302 -27.0341 -1.0152 6.4105 -17.9802 -1.7588 0.7004 3.6606 1.7631 0.8924 3.0185 2.7730 0.4068 0.9929 -15.1142 -11.5095 -19.2697 14.1727 -15.3033 20.7776 5.0768 -6.5110 12.4269 -0.0000 0.0000 0.0000 -79.3937 -18.4398 55.6624 158.5727 -32.3237 -113.7232 -0.0000 0.0000 -64.8349 -51.8186 24.9614 -28.2196 -7.1250 0.0000 -0.0000 -63.1987 43.3016 5.0644 -0.0000 0.0000 0.0000 80.2234 9.8806 39.4520 -159.7264 30.9705 -114.3286 0.0000 -0.0000 -52.4611 45.6369 13.7940 13.7010 7.1250 -0.0000 -0.0000 40.4634 -7.1459 51.2554
-0.1234 16.9472 0.0418 -0.7218 20.0617 -3.4185 0.0000 0.0000 0.0000 -18.1726 -17.3320 -2.5241 2.8343 10.4219 30.3540 0.7093 -11.9390 -16.0747 0.4466 -4.2876 -11.8872 0.0000 0.0000 0.0000 21.6349 -2.7562 0.6984 -1.8885 -8.6299 24.6444 -1.1334 -11.3399 -27.1387 -1.0315 6.4600 -18.1251 -1.6234 0.6610 3.7236 1.8070 0.8427 3.0168 2.7427 0.3841 0.9601 -15.1665 -11.5200 -19.5248 14.3292 -15.2996 20.6916 5.1360 -6.4852 12.4643 0.0000 0.0000 0.0000 -79.3905 -18.4296 55.6569 158.5524 -32.3471 -113.7123 -0.0000 0.0000 -64.8419 -51.5808 24.9739 -28.0275 -7.1250 0.0000 -0.0000 -63.1967 43.3683 4.8519 0.0000 0.0000 0.0000 80.1680 10.0687 39.5320 -159.6965 31.0063 -114.3131 0.0000 -0.0000 -52.5278 45.5508 13.7810 13.6493 7.1250 -0.0000 -0.0000 40.4487 -7.2287 51.1158
-0.1171 16.9472 0.0325 -0.7473 19.7122 -3.3549 0.0000 0.0000 0.0000 -18.1477 -17.2142 -2.6391 2.8392 10.4300 30.3809 0.7352 -11.6769 -16.2287 0.5028 -4.5459 -12.6178 0.0000 0.0000 0.0000 21.6024 -2.5770 0.6057 -1.8925 -8.6385 24.6708 -1.1682 -11.0530 -27.1521 -1.0206 6.4269 -18.0283 -1.4836 0.6966 3.7679 1.7673 0.8933 3.0263 2.6211 0.4121 0.9445 -15.1137 -11.5486 -19.7607 14.4466 -15.3367 20.5365 5.1532 -6.4755 12.4643 0.0000 -0.0000 0.0000 -79.3255 -18.3938 55.6573 158.5629 -32.3350 -113.7179 -0.0000 0.0000 -64.8570 -51.5017 25.0483 -28.0262 -7.1250 0.0000 -0.0000 -63.2872 43.4507 4.6121 0.0000 -0.0000 0.0000 80.1773 10.2771 39.4890 -159.6727 31.0347 -114.3009 0.0000 -0.0000 -52.4957 45.5433 13.8497 13.7100 7.1250 -0.0000 -0.0000 40.4358 -7.1744 51.1420
